<svg xmlns="http://www.w3.org/2000/svg" width="100%" height="100%" viewBox="0 0 1920 1080" preserveAspectRatio="xMidYMid slice"><rect width="100%" height="100%" fill="#ffffff"/><polygon points="0,0 124.30305951373404,0 0,74.0391439233308" fill="none" stroke="#e5e7eb" stroke-width="1.5"/><polygon points="124.30305951373404,0 100.96159788623795,117.99257161280003 0,74.0391439233308" fill="#f9fafb" stroke="#e5e7eb" stroke-width="1.5"/><polygon points="0,74.0391439233308 100.96159788623795,117.99257161280003 0,158.88535164760074" fill="none" stroke="#e5e7eb" stroke-width="1.5"/><polygon points="100.96159788623795,117.99257161280003 75.05329949986299,179.1205637881732 0,158.88535164760074" fill="none" stroke="#e5e7eb" stroke-width="1.5"/><polygon points="0,158.88535164760074 75.05329949986299,179.1205637881732 0,251.52313714234967" fill="none" stroke="#e5e7eb" stroke-width="1.5"/><polygon points="75.05329949986299,179.1205637881732 105.60515058207275,287.41752616076104 0,251.52313714234967" fill="#f3f4f6" stroke="#e5e7eb" stroke-width="1.5"/><polygon points="0,251.52313714234967 105.60515058207275,287.41752616076104 0,397.3849889612117" fill="none" stroke="#e5e7eb" stroke-width="1.5"/><polygon points="105.60515058207275,287.41752616076104 72.96533728377052,349.83491645999254 0,397.3849889612117" fill="none" stroke="#e5e7eb" stroke-width="1.5"/><polygon points="0,397.3849889612117 72.96533728377052,349.83491645999254 0,462.99920325301275" fill="#f3f4f6" stroke="#e5e7eb" stroke-width="1.5"/><polygon points="72.96533728377052,349.83491645999254 67.75297913089494,434.6714963936136 0,462.99920325301275" fill="none" stroke="#e5e7eb" stroke-width="1.5"/><polygon points="0,462.99920325301275 67.75297913089494,434.6714963936136 0,552.9174344626841" fill="#f3f4f6" stroke="#e5e7eb" stroke-width="1.5"/><polygon points="67.75297913089494,434.6714963936136 126.78775692351739,553.0625844732307 0,552.9174344626841" fill="#f9fafb" stroke="#e5e7eb" stroke-width="1.5"/><polygon points="0,552.9174344626841 126.78775692351739,553.0625844732307 0,664.6461784922675" fill="none" stroke="#e5e7eb" stroke-width="1.5"/><polygon points="126.78775692351739,553.0625844732307 135.84158781950816,663.3090066418615 0,664.6461784922675" fill="#f9fafb" stroke="#e5e7eb" stroke-width="1.5"/><polygon points="0,664.6461784922675 135.84158781950816,663.3090066418615 0,688.1846514963897" fill="none" stroke="#e5e7eb" stroke-width="1.5"/><polygon points="135.84158781950816,663.3090066418615 73.59363924931924,754.6178083722724 0,688.1846514963897" fill="#f3f4f6" stroke="#e5e7eb" stroke-width="1.5"/><polygon points="0,688.1846514963897 73.59363924931924,754.6178083722724 0,820.5321383554395" fill="none" stroke="#e5e7eb" stroke-width="1.5"/><polygon points="73.59363924931924,754.6178083722724 102.25364036884714,816.1283136476073 0,820.5321383554395" fill="none" stroke="#e5e7eb" stroke-width="1.5"/><polygon points="0,820.5321383554395 102.25364036884714,816.1283136476073 0,900.7576229940147" fill="none" stroke="#e5e7eb" stroke-width="1.5"/><polygon points="102.25364036884714,816.1283136476073 65.9050087428754,915.3585553863162 0,900.7576229940147" fill="#f9fafb" stroke="#e5e7eb" stroke-width="1.5"/><polygon points="0,900.7576229940147 65.9050087428754,915.3585553863162 0,953.2282913681211" fill="none" stroke="#e5e7eb" stroke-width="1.5"/><polygon points="65.9050087428754,915.3585553863162 135.13570813100836,970.8913625814821 0,953.2282913681211" fill="none" stroke="#e5e7eb" stroke-width="1.5"/><polygon points="0,953.2282913681211 135.13570813100836,970.8913625814821 0,1080" fill="none" stroke="#e5e7eb" stroke-width="1.5"/><polygon points="135.13570813100836,970.8913625814821 90.06694885879568,1080 0,1080" fill="none" stroke="#e5e7eb" stroke-width="1.5"/><polygon points="124.30305951373404,0 191.42885072873273,0 100.96159788623795,117.99257161280003" fill="none" stroke="#e5e7eb" stroke-width="1.5"/><polygon points="191.42885072873273,0 221.65896853263402,79.69476306536555 100.96159788623795,117.99257161280003" fill="#f9fafb" stroke="#e5e7eb" stroke-width="1.5"/><polygon points="100.96159788623795,117.99257161280003 221.65896853263402,79.69476306536555 75.05329949986299,179.1205637881732" fill="none" stroke="#e5e7eb" stroke-width="1.5"/><polygon points="221.65896853263402,79.69476306536555 192.64857139245186,203.9044698067033 75.05329949986299,179.1205637881732" fill="#f3f4f6" stroke="#e5e7eb" stroke-width="1.5"/><polygon points="75.05329949986299,179.1205637881732 192.64857139245186,203.9044698067033 105.60515058207275,287.41752616076104" fill="none" stroke="#e5e7eb" stroke-width="1.5"/><polygon points="192.64857139245186,203.9044698067033 220.2314156403597,300.6854482565129 105.60515058207275,287.41752616076104" fill="#f9fafb" stroke="#e5e7eb" stroke-width="1.5"/><polygon points="105.60515058207275,287.41752616076104 220.2314156403597,300.6854482565129 72.96533728377052,349.83491645999254" fill="none" stroke="#e5e7eb" stroke-width="1.5"/><polygon points="220.2314156403597,300.6854482565129 210.7987800674166,321.0679753416599 72.96533728377052,349.83491645999254" fill="none" stroke="#e5e7eb" stroke-width="1.5"/><polygon points="72.96533728377052,349.83491645999254 210.7987800674166,321.0679753416599 67.75297913089494,434.6714963936136" fill="#f9fafb" stroke="#e5e7eb" stroke-width="1.5"/><polygon points="210.7987800674166,321.0679753416599 231.77659433261954,454.289478115262 67.75297913089494,434.6714963936136" fill="none" stroke="#e5e7eb" stroke-width="1.5"/><polygon points="67.75297913089494,434.6714963936136 231.77659433261954,454.289478115262 126.78775692351739,553.0625844732307" fill="none" stroke="#e5e7eb" stroke-width="1.5"/><polygon points="231.77659433261954,454.289478115262 172.6339905549043,502.01024720909214 126.78775692351739,553.0625844732307" fill="#f9fafb" stroke="#e5e7eb" stroke-width="1.5"/><polygon points="126.78775692351739,553.0625844732307 172.6339905549043,502.01024720909214 135.84158781950816,663.3090066418615" fill="none" stroke="#e5e7eb" stroke-width="1.5"/><polygon points="172.6339905549043,502.01024720909214 165.4628516509,605.683955880128 135.84158781950816,663.3090066418615" fill="none" stroke="#e5e7eb" stroke-width="1.5"/><polygon points="135.84158781950816,663.3090066418615 165.4628516509,605.683955880128 73.59363924931924,754.6178083722724" fill="none" stroke="#e5e7eb" stroke-width="1.5"/><polygon points="165.4628516509,605.683955880128 149.41350074226875,683.502104964003 73.59363924931924,754.6178083722724" fill="none" stroke="#e5e7eb" stroke-width="1.5"/><polygon points="73.59363924931924,754.6178083722724 149.41350074226875,683.502104964003 102.25364036884714,816.1283136476073" fill="none" stroke="#e5e7eb" stroke-width="1.5"/><polygon points="149.41350074226875,683.502104964003 207.7944462846861,793.577155404796 102.25364036884714,816.1283136476073" fill="none" stroke="#e5e7eb" stroke-width="1.5"/><polygon points="102.25364036884714,816.1283136476073 207.7944462846861,793.577155404796 65.9050087428754,915.3585553863162" fill="none" stroke="#e5e7eb" stroke-width="1.5"/><polygon points="207.7944462846861,793.577155404796 193.65410224103132,896.4863991163212 65.9050087428754,915.3585553863162" fill="none" stroke="#e5e7eb" stroke-width="1.5"/><polygon points="65.9050087428754,915.3585553863162 193.65410224103132,896.4863991163212 135.13570813100836,970.8913625814821" fill="none" stroke="#e5e7eb" stroke-width="1.5"/><polygon points="193.65410224103132,896.4863991163212 207.02819853127704,982.8270051563712 135.13570813100836,970.8913625814821" fill="none" stroke="#e5e7eb" stroke-width="1.5"/><polygon points="135.13570813100836,970.8913625814821 207.02819853127704,982.8270051563712 90.06694885879568,1080" fill="none" stroke="#e5e7eb" stroke-width="1.5"/><polygon points="207.02819853127704,982.8270051563712 172.94765234001608,1080 90.06694885879568,1080" fill="#f3f4f6" stroke="#e5e7eb" stroke-width="1.5"/><polygon points="191.42885072873273,0 318.5408559029088,0 221.65896853263402,79.69476306536555" fill="none" stroke="#e5e7eb" stroke-width="1.5"/><polygon points="318.5408559029088,0 257.09392207099063,63.30703206689755 221.65896853263402,79.69476306536555" fill="none" stroke="#e5e7eb" stroke-width="1.5"/><polygon points="221.65896853263402,79.69476306536555 257.09392207099063,63.30703206689755 192.64857139245186,203.9044698067033" fill="none" stroke="#e5e7eb" stroke-width="1.5"/><polygon points="257.09392207099063,63.30703206689755 288.67267799238056,218.27703871108358 192.64857139245186,203.9044698067033" fill="none" stroke="#e5e7eb" stroke-width="1.5"/><polygon points="192.64857139245186,203.9044698067033 288.67267799238056,218.27703871108358 220.2314156403597,300.6854482565129" fill="none" stroke="#e5e7eb" stroke-width="1.5"/><polygon points="288.67267799238056,218.27703871108358 316.5099610512154,238.54606499863755 220.2314156403597,300.6854482565129" fill="none" stroke="#e5e7eb" stroke-width="1.5"/><polygon points="220.2314156403597,300.6854482565129 316.5099610512154,238.54606499863755 210.7987800674166,321.0679753416599" fill="none" stroke="#e5e7eb" stroke-width="1.5"/><polygon points="316.5099610512154,238.54606499863755 259.93191149580247,347.42448734172217 210.7987800674166,321.0679753416599" fill="none" stroke="#e5e7eb" stroke-width="1.5"/><polygon points="210.7987800674166,321.0679753416599 259.93191149580247,347.42448734172217 231.77659433261954,454.289478115262" fill="none" stroke="#e5e7eb" stroke-width="1.5"/><polygon points="259.93191149580247,347.42448734172217 294.75163638557166,486.9672753696161 231.77659433261954,454.289478115262" fill="none" stroke="#e5e7eb" stroke-width="1.5"/><polygon points="231.77659433261954,454.289478115262 294.75163638557166,486.9672753696161 172.6339905549043,502.01024720909214" fill="#f3f4f6" stroke="#e5e7eb" stroke-width="1.5"/><polygon points="294.75163638557166,486.9672753696161 248.0132271224977,522.6618172020882 172.6339905549043,502.01024720909214" fill="none" stroke="#e5e7eb" stroke-width="1.5"/><polygon points="172.6339905549043,502.01024720909214 248.0132271224977,522.6618172020882 165.4628516509,605.683955880128" fill="none" stroke="#e5e7eb" stroke-width="1.5"/><polygon points="248.0132271224977,522.6618172020882 280.1881867459446,669.8106119254498 165.4628516509,605.683955880128" fill="none" stroke="#e5e7eb" stroke-width="1.5"/><polygon points="165.4628516509,605.683955880128 280.1881867459446,669.8106119254498 149.41350074226875,683.502104964003" fill="none" stroke="#e5e7eb" stroke-width="1.5"/><polygon points="280.1881867459446,669.8106119254498 262.3545898381166,736.4259674161248 149.41350074226875,683.502104964003" fill="none" stroke="#e5e7eb" stroke-width="1.5"/><polygon points="149.41350074226875,683.502104964003 262.3545898381166,736.4259674161248 207.7944462846861,793.577155404796" fill="#f9fafb" stroke="#e5e7eb" stroke-width="1.5"/><polygon points="262.3545898381166,736.4259674161248 277.928505795339,772.3876111059059 207.7944462846861,793.577155404796" fill="none" stroke="#e5e7eb" stroke-width="1.5"/><polygon points="207.7944462846861,793.577155404796 277.928505795339,772.3876111059059 193.65410224103132,896.4863991163212" fill="none" stroke="#e5e7eb" stroke-width="1.5"/><polygon points="277.928505795339,772.3876111059059 312.95755889473816,880.678955818264 193.65410224103132,896.4863991163212" fill="#f9fafb" stroke="#e5e7eb" stroke-width="1.5"/><polygon points="193.65410224103132,896.4863991163212 312.95755889473816,880.678955818264 207.02819853127704,982.8270051563712" fill="none" stroke="#e5e7eb" stroke-width="1.5"/><polygon points="312.95755889473816,880.678955818264 302.50032713991,967.1740706920078 207.02819853127704,982.8270051563712" fill="#f9fafb" stroke="#e5e7eb" stroke-width="1.5"/><polygon points="207.02819853127704,982.8270051563712 302.50032713991,967.1740706920078 172.94765234001608,1080" fill="none" stroke="#e5e7eb" stroke-width="1.5"/><polygon points="302.50032713991,967.1740706920078 327.7506611120183,1080 172.94765234001608,1080" fill="none" stroke="#e5e7eb" stroke-width="1.5"/><polygon points="318.5408559029088,0 385.15329944497665,0 257.09392207099063,63.30703206689755" fill="none" stroke="#e5e7eb" stroke-width="1.5"/><polygon points="385.15329944497665,0 353.87137254088367,91.79392510901594 257.09392207099063,63.30703206689755" fill="none" stroke="#e5e7eb" stroke-width="1.5"/><polygon points="257.09392207099063,63.30703206689755 353.87137254088367,91.79392510901594 288.67267799238056,218.27703871108358" fill="none" stroke="#e5e7eb" stroke-width="1.5"/><polygon points="353.87137254088367,91.79392510901594 400.8280754025145,167.74459201713944 288.67267799238056,218.27703871108358" fill="none" stroke="#e5e7eb" stroke-width="1.5"/><polygon points="288.67267799238056,218.27703871108358 400.8280754025145,167.74459201713944 316.5099610512154,238.54606499863755" fill="none" stroke="#e5e7eb" stroke-width="1.5"/><polygon points="400.8280754025145,167.74459201713944 411.70641638807206,263.24978321791565 316.5099610512154,238.54606499863755" fill="#f9fafb" stroke="#e5e7eb" stroke-width="1.5"/><polygon points="316.5099610512154,238.54606499863755 411.70641638807206,263.24978321791565 259.93191149580247,347.42448734172217" fill="none" stroke="#e5e7eb" stroke-width="1.5"/><polygon points="411.70641638807206,263.24978321791565 414.6757649890712,333.3460816403418 259.93191149580247,347.42448734172217" fill="none" stroke="#e5e7eb" stroke-width="1.5"/><polygon points="259.93191149580247,347.42448734172217 414.6757649890712,333.3460816403418 294.75163638557166,486.9672753696161" fill="none" stroke="#e5e7eb" stroke-width="1.5"/><polygon points="414.6757649890712,333.3460816403418 370.6862456874677,445.0213330941294 294.75163638557166,486.9672753696161" fill="none" stroke="#e5e7eb" stroke-width="1.5"/><polygon points="294.75163638557166,486.9672753696161 370.6862456874677,445.0213330941294 248.0132271224977,522.6618172020882" fill="none" stroke="#e5e7eb" stroke-width="1.5"/><polygon points="370.6862456874677,445.0213330941294 408.7924266080938,513.0206660850636 248.0132271224977,522.6618172020882" fill="#f3f4f6" stroke="#e5e7eb" stroke-width="1.5"/><polygon points="248.0132271224977,522.6618172020882 408.7924266080938,513.0206660850636 280.1881867459446,669.8106119254498" fill="none" stroke="#e5e7eb" stroke-width="1.5"/><polygon points="408.7924266080938,513.0206660850636 359.3754449621065,599.2238918496716 280.1881867459446,669.8106119254498" fill="none" stroke="#e5e7eb" stroke-width="1.5"/><polygon points="280.1881867459446,669.8106119254498 359.3754449621065,599.2238918496716 262.3545898381166,736.4259674161248" fill="none" stroke="#e5e7eb" stroke-width="1.5"/><polygon points="359.3754449621065,599.2238918496716 363.3374093374841,739.939704891845 262.3545898381166,736.4259674161248" fill="#f3f4f6" stroke="#e5e7eb" stroke-width="1.5"/><polygon points="262.3545898381166,736.4259674161248 363.3374093374841,739.939704891845 277.928505795339,772.3876111059059" fill="#f9fafb" stroke="#e5e7eb" stroke-width="1.5"/><polygon points="363.3374093374841,739.939704891845 384.70230960204725,822.767743258061 277.928505795339,772.3876111059059" fill="none" stroke="#e5e7eb" stroke-width="1.5"/><polygon points="277.928505795339,772.3876111059059 384.70230960204725,822.767743258061 312.95755889473816,880.678955818264" fill="#f3f4f6" stroke="#e5e7eb" stroke-width="1.5"/><polygon points="384.70230960204725,822.767743258061 412.80018879167164,927.4476596503474 312.95755889473816,880.678955818264" fill="none" stroke="#e5e7eb" stroke-width="1.5"/><polygon points="312.95755889473816,880.678955818264 412.80018879167164,927.4476596503474 302.50032713991,967.1740706920078" fill="none" stroke="#e5e7eb" stroke-width="1.5"/><polygon points="412.80018879167164,927.4476596503474 424.89657876924105,953.9285590519487 302.50032713991,967.1740706920078" fill="none" stroke="#e5e7eb" stroke-width="1.5"/><polygon points="302.50032713991,967.1740706920078 424.89657876924105,953.9285590519487 327.7506611120183,1080" fill="none" stroke="#e5e7eb" stroke-width="1.5"/><polygon points="424.89657876924105,953.9285590519487 377.6655480481295,1080 327.7506611120183,1080" fill="none" stroke="#e5e7eb" stroke-width="1.5"/><polygon points="385.15329944497665,0 499.5205566228237,0 353.87137254088367,91.79392510901594" fill="#f9fafb" stroke="#e5e7eb" stroke-width="1.5"/><polygon points="499.5205566228237,0 486.4336165541973,125.2239236193771 353.87137254088367,91.79392510901594" fill="none" stroke="#e5e7eb" stroke-width="1.5"/><polygon points="353.87137254088367,91.79392510901594 486.4336165541973,125.2239236193771 400.8280754025145,167.74459201713944" fill="#f9fafb" stroke="#e5e7eb" stroke-width="1.5"/><polygon points="486.4336165541973,125.2239236193771 453.70408945526896,147.9985588973042 400.8280754025145,167.74459201713944" fill="none" stroke="#e5e7eb" stroke-width="1.5"/><polygon points="400.8280754025145,167.74459201713944 453.70408945526896,147.9985588973042 411.70641638807206,263.24978321791565" fill="none" stroke="#e5e7eb" stroke-width="1.5"/><polygon points="453.70408945526896,147.9985588973042 450.258544387659,274.42825543018506 411.70641638807206,263.24978321791565" fill="none" stroke="#e5e7eb" stroke-width="1.5"/><polygon points="411.70641638807206,263.24978321791565 450.258544387659,274.42825543018506 414.6757649890712,333.3460816403418" fill="none" stroke="#e5e7eb" stroke-width="1.5"/><polygon points="450.258544387659,274.42825543018506 438.24401221784103,370.45079337256124 414.6757649890712,333.3460816403418" fill="none" stroke="#e5e7eb" stroke-width="1.5"/><polygon points="414.6757649890712,333.3460816403418 438.24401221784103,370.45079337256124 370.6862456874677,445.0213330941294" fill="none" stroke="#e5e7eb" stroke-width="1.5"/><polygon points="438.24401221784103,370.45079337256124 481.4387433937259,476.12301068346454 370.6862456874677,445.0213330941294" fill="none" stroke="#e5e7eb" stroke-width="1.5"/><polygon points="370.6862456874677,445.0213330941294 481.4387433937259,476.12301068346454 408.7924266080938,513.0206660850636" fill="none" stroke="#e5e7eb" stroke-width="1.5"/><polygon points="481.4387433937259,476.12301068346454 503.642401987931,576.8111546205295 408.7924266080938,513.0206660850636" fill="#f3f4f6" stroke="#e5e7eb" stroke-width="1.5"/><polygon points="408.7924266080938,513.0206660850636 503.642401987931,576.8111546205295 359.3754449621065,599.2238918496716" fill="none" stroke="#e5e7eb" stroke-width="1.5"/><polygon points="503.642401987931,576.8111546205295 514.4174796072805,618.3471221424174 359.3754449621065,599.2238918496716" fill="#f3f4f6" stroke="#e5e7eb" stroke-width="1.5"/><polygon points="359.3754449621065,599.2238918496716 514.4174796072805,618.3471221424174 363.3374093374841,739.939704891845" fill="none" stroke="#e5e7eb" stroke-width="1.5"/><polygon points="514.4174796072805,618.3471221424174 457.2996489546504,721.1947782325263 363.3374093374841,739.939704891845" fill="none" stroke="#e5e7eb" stroke-width="1.5"/><polygon points="363.3374093374841,739.939704891845 457.2996489546504,721.1947782325263 384.70230960204725,822.767743258061" fill="#f9fafb" stroke="#e5e7eb" stroke-width="1.5"/><polygon points="457.2996489546504,721.1947782325263 484.85240904964843,845.597972166543 384.70230960204725,822.767743258061" fill="none" stroke="#e5e7eb" stroke-width="1.5"/><polygon points="384.70230960204725,822.767743258061 484.85240904964843,845.597972166543 412.80018879167164,927.4476596503474" fill="none" stroke="#e5e7eb" stroke-width="1.5"/><polygon points="484.85240904964843,845.597972166543 446.74941501827954,912.8093380917406 412.80018879167164,927.4476596503474" fill="none" stroke="#e5e7eb" stroke-width="1.5"/><polygon points="412.80018879167164,927.4476596503474 446.74941501827954,912.8093380917406 424.89657876924105,953.9285590519487" fill="#f3f4f6" stroke="#e5e7eb" stroke-width="1.5"/><polygon points="446.74941501827954,912.8093380917406 474.99009807122013,984.1515509152965 424.89657876924105,953.9285590519487" fill="none" stroke="#e5e7eb" stroke-width="1.5"/><polygon points="424.89657876924105,953.9285590519487 474.99009807122013,984.1515509152965 377.6655480481295,1080" fill="none" stroke="#e5e7eb" stroke-width="1.5"/><polygon points="474.99009807122013,984.1515509152965 471.93051235537627,1080 377.6655480481295,1080" fill="#f3f4f6" stroke="#e5e7eb" stroke-width="1.5"/><polygon points="499.5205566228237,0 565.6275893455845,0 486.4336165541973,125.2239236193771" fill="#f3f4f6" stroke="#e5e7eb" stroke-width="1.5"/><polygon points="565.6275893455845,0 554.023700478526,85.29825486299592 486.4336165541973,125.2239236193771" fill="#f3f4f6" stroke="#e5e7eb" stroke-width="1.5"/><polygon points="486.4336165541973,125.2239236193771 554.023700478526,85.29825486299592 453.70408945526896,147.9985588973042" fill="none" stroke="#e5e7eb" stroke-width="1.5"/><polygon points="554.023700478526,85.29825486299592 613.0716438657139,157.79915621860923 453.70408945526896,147.9985588973042" fill="#f3f4f6" stroke="#e5e7eb" stroke-width="1.5"/><polygon points="453.70408945526896,147.9985588973042 613.0716438657139,157.79915621860923 450.258544387659,274.42825543018506" fill="none" stroke="#e5e7eb" stroke-width="1.5"/><polygon points="613.0716438657139,157.79915621860923 613.5619046221775,260.0187260957027 450.258544387659,274.42825543018506" fill="none" stroke="#e5e7eb" stroke-width="1.5"/><polygon points="450.258544387659,274.42825543018506 613.5619046221775,260.0187260957027 438.24401221784103,370.45079337256124" fill="none" stroke="#e5e7eb" stroke-width="1.5"/><polygon points="613.5619046221775,260.0187260957027 566.3321918230039,350.5478787076293 438.24401221784103,370.45079337256124" fill="#f3f4f6" stroke="#e5e7eb" stroke-width="1.5"/><polygon points="438.24401221784103,370.45079337256124 566.3321918230039,350.5478787076293 481.4387433937259,476.12301068346454" fill="none" stroke="#e5e7eb" stroke-width="1.5"/><polygon points="566.3321918230039,350.5478787076293 602.133238420078,437.551198177432 481.4387433937259,476.12301068346454" fill="none" stroke="#e5e7eb" stroke-width="1.5"/><polygon points="481.4387433937259,476.12301068346454 602.133238420078,437.551198177432 503.642401987931,576.8111546205295" fill="none" stroke="#e5e7eb" stroke-width="1.5"/><polygon points="602.133238420078,437.551198177432 576.6707367445181,557.6263949989229 503.642401987931,576.8111546205295" fill="none" stroke="#e5e7eb" stroke-width="1.5"/><polygon points="503.642401987931,576.8111546205295 576.6707367445181,557.6263949989229 514.4174796072805,618.3471221424174" fill="none" stroke="#e5e7eb" stroke-width="1.5"/><polygon points="576.6707367445181,557.6263949989229 590.295491966609,626.482813625096 514.4174796072805,618.3471221424174" fill="none" stroke="#e5e7eb" stroke-width="1.5"/><polygon points="514.4174796072805,618.3471221424174 590.295491966609,626.482813625096 457.2996489546504,721.1947782325263" fill="none" stroke="#e5e7eb" stroke-width="1.5"/><polygon points="590.295491966609,626.482813625096 599.4951014948192,754.4169079845716 457.2996489546504,721.1947782325263" fill="none" stroke="#e5e7eb" stroke-width="1.5"/><polygon points="457.2996489546504,721.1947782325263 599.4951014948192,754.4169079845716 484.85240904964843,845.597972166543" fill="none" stroke="#e5e7eb" stroke-width="1.5"/><polygon points="599.4951014948192,754.4169079845716 574.1799258549336,820.6239058563675 484.85240904964843,845.597972166543" fill="#f9fafb" stroke="#e5e7eb" stroke-width="1.5"/><polygon points="484.85240904964843,845.597972166543 574.1799258549336,820.6239058563675 446.74941501827954,912.8093380917406" fill="none" stroke="#e5e7eb" stroke-width="1.5"/><polygon points="574.1799258549336,820.6239058563675 582.8298772253085,893.8236216812743 446.74941501827954,912.8093380917406" fill="#f3f4f6" stroke="#e5e7eb" stroke-width="1.5"/><polygon points="446.74941501827954,912.8093380917406 582.8298772253085,893.8236216812743 474.99009807122013,984.1515509152965" fill="#f3f4f6" stroke="#e5e7eb" stroke-width="1.5"/><polygon points="582.8298772253085,893.8236216812743 577.932967104897,1000.836414819451 474.99009807122013,984.1515509152965" fill="#f9fafb" stroke="#e5e7eb" stroke-width="1.5"/><polygon points="474.99009807122013,984.1515509152965 577.932967104897,1000.836414819451 471.93051235537627,1080" fill="none" stroke="#e5e7eb" stroke-width="1.5"/><polygon points="577.932967104897,1000.836414819451 608.0808743333497,1080 471.93051235537627,1080" fill="none" stroke="#e5e7eb" stroke-width="1.5"/><polygon points="565.6275893455845,0 672.2400963992956,0 554.023700478526,85.29825486299592" fill="none" stroke="#e5e7eb" stroke-width="1.5"/><polygon points="672.2400963992956,0 670.6622516564053,90.71509594027196 554.023700478526,85.29825486299592" fill="none" stroke="#e5e7eb" stroke-width="1.5"/><polygon points="554.023700478526,85.29825486299592 670.6622516564053,90.71509594027196 613.0716438657139,157.79915621860923" fill="none" stroke="#e5e7eb" stroke-width="1.5"/><polygon points="670.6622516564053,90.71509594027196 714.8595646191169,154.98568834584745 613.0716438657139,157.79915621860923" fill="none" stroke="#e5e7eb" stroke-width="1.5"/><polygon points="613.0716438657139,157.79915621860923 714.8595646191169,154.98568834584745 613.5619046221775,260.0187260957027" fill="none" stroke="#e5e7eb" stroke-width="1.5"/><polygon points="714.8595646191169,154.98568834584745 640.7840919704101,276.179466820074 613.5619046221775,260.0187260957027" fill="none" stroke="#e5e7eb" stroke-width="1.5"/><polygon points="613.5619046221775,260.0187260957027 640.7840919704101,276.179466820074 566.3321918230039,350.5478787076293" fill="none" stroke="#e5e7eb" stroke-width="1.5"/><polygon points="640.7840919704101,276.179466820074 638.7475125493727,371.2488676764456 566.3321918230039,350.5478787076293" fill="#f9fafb" stroke="#e5e7eb" stroke-width="1.5"/><polygon points="566.3321918230039,350.5478787076293 638.7475125493727,371.2488676764456 602.133238420078,437.551198177432" fill="none" stroke="#e5e7eb" stroke-width="1.5"/><polygon points="638.7475125493727,371.2488676764456 649.7686795704379,461.08697940647045 602.133238420078,437.551198177432" fill="none" stroke="#e5e7eb" stroke-width="1.5"/><polygon points="602.133238420078,437.551198177432 649.7686795704379,461.08697940647045 576.6707367445181,557.6263949989229" fill="none" stroke="#e5e7eb" stroke-width="1.5"/><polygon points="649.7686795704379,461.08697940647045 657.5902164978471,569.4903329311395 576.6707367445181,557.6263949989229" fill="none" stroke="#e5e7eb" stroke-width="1.5"/><polygon points="576.6707367445181,557.6263949989229 657.5902164978471,569.4903329311395 590.295491966609,626.482813625096" fill="none" stroke="#e5e7eb" stroke-width="1.5"/><polygon points="657.5902164978471,569.4903329311395 654.8927088927217,600.496176427832 590.295491966609,626.482813625096" fill="none" stroke="#e5e7eb" stroke-width="1.5"/><polygon points="590.295491966609,626.482813625096 654.8927088927217,600.496176427832 599.4951014948192,754.4169079845716" fill="none" stroke="#e5e7eb" stroke-width="1.5"/><polygon points="654.8927088927217,600.496176427832 641.8867590826314,684.1347899873656 599.4951014948192,754.4169079845716" fill="none" stroke="#e5e7eb" stroke-width="1.5"/><polygon points="599.4951014948192,754.4169079845716 641.8867590826314,684.1347899873656 574.1799258549336,820.6239058563675" fill="none" stroke="#e5e7eb" stroke-width="1.5"/><polygon points="641.8867590826314,684.1347899873656 696.1700791594379,841.4885067369304 574.1799258549336,820.6239058563675" fill="none" stroke="#e5e7eb" stroke-width="1.5"/><polygon points="574.1799258549336,820.6239058563675 696.1700791594379,841.4885067369304 582.8298772253085,893.8236216812743" fill="none" stroke="#e5e7eb" stroke-width="1.5"/><polygon points="696.1700791594379,841.4885067369304 695.7386249041542,938.7352672570524 582.8298772253085,893.8236216812743" fill="#f9fafb" stroke="#e5e7eb" stroke-width="1.5"/><polygon points="582.8298772253085,893.8236216812743 695.7386249041542,938.7352672570524 577.932967104897,1000.836414819451" fill="none" stroke="#e5e7eb" stroke-width="1.5"/><polygon points="695.7386249041542,938.7352672570524 673.0663132294759,1018.1746558813137 577.932967104897,1000.836414819451" fill="#f3f4f6" stroke="#e5e7eb" stroke-width="1.5"/><polygon points="577.932967104897,1000.836414819451 673.0663132294759,1018.1746558813137 608.0808743333497,1080" fill="none" stroke="#e5e7eb" stroke-width="1.5"/><polygon points="673.0663132294759,1018.1746558813137 659.6298340438254,1080 608.0808743333497,1080" fill="none" stroke="#e5e7eb" stroke-width="1.5"/><polygon points="672.2400963992956,0 764.6431186517914,0 670.6622516564053,90.71509594027196" fill="none" stroke="#e5e7eb" stroke-width="1.5"/><polygon points="764.6431186517914,0 772.303566970647,76.59872366176525 670.6622516564053,90.71509594027196" fill="none" stroke="#e5e7eb" stroke-width="1.5"/><polygon points="670.6622516564053,90.71509594027196 772.303566970647,76.59872366176525 714.8595646191169,154.98568834584745" fill="none" stroke="#e5e7eb" stroke-width="1.5"/><polygon points="772.303566970647,76.59872366176525 781.5588569443947,202.0677255138375 714.8595646191169,154.98568834584745" fill="none" stroke="#e5e7eb" stroke-width="1.5"/><polygon points="714.8595646191169,154.98568834584745 781.5588569443947,202.0677255138375 640.7840919704101,276.179466820074" fill="none" stroke="#e5e7eb" stroke-width="1.5"/><polygon points="781.5588569443947,202.0677255138375 798.4071011954613,296.4331582309783 640.7840919704101,276.179466820074" fill="none" stroke="#e5e7eb" stroke-width="1.5"/><polygon points="640.7840919704101,276.179466820074 798.4071011954613,296.4331582309783 638.7475125493727,371.2488676764456" fill="none" stroke="#e5e7eb" stroke-width="1.5"/><polygon points="798.4071011954613,296.4331582309783 745.5629468895938,343.3270634756727 638.7475125493727,371.2488676764456" fill="none" stroke="#e5e7eb" stroke-width="1.5"/><polygon points="638.7475125493727,371.2488676764456 745.5629468895938,343.3270634756727 649.7686795704379,461.08697940647045" fill="none" stroke="#e5e7eb" stroke-width="1.5"/><polygon points="745.5629468895938,343.3270634756727 767.8893611876293,471.0345844060062 649.7686795704379,461.08697940647045" fill="none" stroke="#e5e7eb" stroke-width="1.5"/><polygon points="649.7686795704379,461.08697940647045 767.8893611876293,471.0345844060062 657.5902164978471,569.4903329311395" fill="none" stroke="#e5e7eb" stroke-width="1.5"/><polygon points="767.8893611876293,471.0345844060062 755.6679829884129,501.9931922300813 657.5902164978471,569.4903329311395" fill="none" stroke="#e5e7eb" stroke-width="1.5"/><polygon points="657.5902164978471,569.4903329311395 755.6679829884129,501.9931922300813 654.8927088927217,600.496176427832" fill="none" stroke="#e5e7eb" stroke-width="1.5"/><polygon points="755.6679829884129,501.9931922300813 769.0455400764562,636.2833608772107 654.8927088927217,600.496176427832" fill="none" stroke="#e5e7eb" stroke-width="1.5"/><polygon points="654.8927088927217,600.496176427832 769.0455400764562,636.2833608772107 641.8867590826314,684.1347899873656" fill="none" stroke="#e5e7eb" stroke-width="1.5"/><polygon points="769.0455400764562,636.2833608772107 734.1831349054545,695.9173954095601 641.8867590826314,684.1347899873656" fill="none" stroke="#e5e7eb" stroke-width="1.5"/><polygon points="641.8867590826314,684.1347899873656 734.1831349054545,695.9173954095601 696.1700791594379,841.4885067369304" fill="#f9fafb" stroke="#e5e7eb" stroke-width="1.5"/><polygon points="734.1831349054545,695.9173954095601 802.7705935854643,786.5692991281596 696.1700791594379,841.4885067369304" fill="none" stroke="#e5e7eb" stroke-width="1.5"/><polygon points="696.1700791594379,841.4885067369304 802.7705935854643,786.5692991281596 695.7386249041542,938.7352672570524" fill="#f9fafb" stroke="#e5e7eb" stroke-width="1.5"/><polygon points="802.7705935854643,786.5692991281596 764.4346995076373,860.1031422279303 695.7386249041542,938.7352672570524" fill="none" stroke="#e5e7eb" stroke-width="1.5"/><polygon points="695.7386249041542,938.7352672570524 764.4346995076373,860.1031422279303 673.0663132294759,1018.1746558813137" fill="#f3f4f6" stroke="#e5e7eb" stroke-width="1.5"/><polygon points="764.4346995076373,860.1031422279303 764.3542935113612,993.7338409084311 673.0663132294759,1018.1746558813137" fill="none" stroke="#e5e7eb" stroke-width="1.5"/><polygon points="673.0663132294759,1018.1746558813137 764.3542935113612,993.7338409084311 659.6298340438254,1080" fill="none" stroke="#e5e7eb" stroke-width="1.5"/><polygon points="764.3542935113612,993.7338409084311 726.1678285475092,1080 659.6298340438254,1080" fill="none" stroke="#e5e7eb" stroke-width="1.5"/><polygon points="764.6431186517914,0 898.9982147441511,0 772.303566970647,76.59872366176525" fill="none" stroke="#e5e7eb" stroke-width="1.5"/><polygon points="898.9982147441511,0 901.5269990028218,91.12607111494056 772.303566970647,76.59872366176525" fill="none" stroke="#e5e7eb" stroke-width="1.5"/><polygon points="772.303566970647,76.59872366176525 901.5269990028218,91.12607111494056 781.5588569443947,202.0677255138375" fill="none" stroke="#e5e7eb" stroke-width="1.5"/><polygon points="901.5269990028218,91.12607111494056 860.9082526342324,195.6997605279102 781.5588569443947,202.0677255138375" fill="none" stroke="#e5e7eb" stroke-width="1.5"/><polygon points="781.5588569443947,202.0677255138375 860.9082526342324,195.6997605279102 798.4071011954613,296.4331582309783" fill="none" stroke="#e5e7eb" stroke-width="1.5"/><polygon points="860.9082526342324,195.6997605279102 866.1315940343443,256.5938821013243 798.4071011954613,296.4331582309783" fill="#f3f4f6" stroke="#e5e7eb" stroke-width="1.5"/><polygon points="798.4071011954613,296.4331582309783 866.1315940343443,256.5938821013243 745.5629468895938,343.3270634756727" fill="#f9fafb" stroke="#e5e7eb" stroke-width="1.5"/><polygon points="866.1315940343443,256.5938821013243 872.7886088573086,374.77504965335885 745.5629468895938,343.3270634756727" fill="none" stroke="#e5e7eb" stroke-width="1.5"/><polygon points="745.5629468895938,343.3270634756727 872.7886088573086,374.77504965335885 767.8893611876293,471.0345844060062" fill="#f3f4f6" stroke="#e5e7eb" stroke-width="1.5"/><polygon points="872.7886088573086,374.77504965335885 856.5500991224907,467.72500220478963 767.8893611876293,471.0345844060062" fill="none" stroke="#e5e7eb" stroke-width="1.5"/><polygon points="767.8893611876293,471.0345844060062 856.5500991224907,467.72500220478963 755.6679829884129,501.9931922300813" fill="none" stroke="#e5e7eb" stroke-width="1.5"/><polygon points="856.5500991224907,467.72500220478963 854.166817817993,565.8717055935177 755.6679829884129,501.9931922300813" fill="none" stroke="#e5e7eb" stroke-width="1.5"/><polygon points="755.6679829884129,501.9931922300813 854.166817817993,565.8717055935177 769.0455400764562,636.2833608772107" fill="none" stroke="#e5e7eb" stroke-width="1.5"/><polygon points="854.166817817993,565.8717055935177 854.6767565634813,661.0508137576494 769.0455400764562,636.2833608772107" fill="none" stroke="#e5e7eb" stroke-width="1.5"/><polygon points="769.0455400764562,636.2833608772107 854.6767565634813,661.0508137576494 734.1831349054545,695.9173954095601" fill="none" stroke="#e5e7eb" stroke-width="1.5"/><polygon points="854.6767565634813,661.0508137576494 861.9036643798546,729.9349613714616 734.1831349054545,695.9173954095601" fill="#f9fafb" stroke="#e5e7eb" stroke-width="1.5"/><polygon points="734.1831349054545,695.9173954095601 861.9036643798546,729.9349613714616 802.7705935854643,786.5692991281596" fill="none" stroke="#e5e7eb" stroke-width="1.5"/><polygon points="861.9036643798546,729.9349613714616 836.8640316856626,826.6449406613258 802.7705935854643,786.5692991281596" fill="none" stroke="#e5e7eb" stroke-width="1.5"/><polygon points="802.7705935854643,786.5692991281596 836.8640316856626,826.6449406613258 764.4346995076373,860.1031422279303" fill="none" stroke="#e5e7eb" stroke-width="1.5"/><polygon points="836.8640316856626,826.6449406613258 827.3261418834696,922.9980979254691 764.4346995076373,860.1031422279303" fill="#f9fafb" stroke="#e5e7eb" stroke-width="1.5"/><polygon points="764.4346995076373,860.1031422279303 827.3261418834696,922.9980979254691 764.3542935113612,993.7338409084311" fill="#f9fafb" stroke="#e5e7eb" stroke-width="1.5"/><polygon points="827.3261418834696,922.9980979254691 903.8229847272154,1020.0882639918688 764.3542935113612,993.7338409084311" fill="#f9fafb" stroke="#e5e7eb" stroke-width="1.5"/><polygon points="764.3542935113612,993.7338409084311 903.8229847272154,1020.0882639918688 726.1678285475092,1080" fill="none" stroke="#e5e7eb" stroke-width="1.5"/><polygon points="903.8229847272154,1020.0882639918688 855.430419947596,1080 726.1678285475092,1080" fill="#f3f4f6" stroke="#e5e7eb" stroke-width="1.5"/><polygon points="898.9982147441511,0 946.1331936454384,0 901.5269990028218,91.12607111494056" fill="none" stroke="#e5e7eb" stroke-width="1.5"/><polygon points="946.1331936454384,0 943.874823820538,129.082004118743 901.5269990028218,91.12607111494056" fill="none" stroke="#e5e7eb" stroke-width="1.5"/><polygon points="901.5269990028218,91.12607111494056 943.874823820538,129.082004118743 860.9082526342324,195.6997605279102" fill="#f3f4f6" stroke="#e5e7eb" stroke-width="1.5"/><polygon points="943.874823820538,129.082004118743 937.0416527618962,141.76172126226118 860.9082526342324,195.6997605279102" fill="none" stroke="#e5e7eb" stroke-width="1.5"/><polygon points="860.9082526342324,195.6997605279102 937.0416527618962,141.76172126226118 866.1315940343443,256.5938821013243" fill="none" stroke="#e5e7eb" stroke-width="1.5"/><polygon points="937.0416527618962,141.76172126226118 937.0823616337173,232.72323602758755 866.1315940343443,256.5938821013243" fill="#f3f4f6" stroke="#e5e7eb" stroke-width="1.5"/><polygon points="866.1315940343443,256.5938821013243 937.0823616337173,232.72323602758755 872.7886088573086,374.77504965335885" fill="none" stroke="#e5e7eb" stroke-width="1.5"/><polygon points="937.0823616337173,232.72323602758755 960.2430592553308,382.316666374957 872.7886088573086,374.77504965335885" fill="none" stroke="#e5e7eb" stroke-width="1.5"/><polygon points="872.7886088573086,374.77504965335885 960.2430592553308,382.316666374957 856.5500991224907,467.72500220478963" fill="none" stroke="#e5e7eb" stroke-width="1.5"/><polygon points="960.2430592553308,382.316666374957 917.5150067104036,433.25598518936664 856.5500991224907,467.72500220478963" fill="#f9fafb" stroke="#e5e7eb" stroke-width="1.5"/><polygon points="856.5500991224907,467.72500220478963 917.5150067104036,433.25598518936664 854.166817817993,565.8717055935177" fill="none" stroke="#e5e7eb" stroke-width="1.5"/><polygon points="917.5150067104036,433.25598518936664 921.725331708159,541.7751092658814 854.166817817993,565.8717055935177" fill="#f9fafb" stroke="#e5e7eb" stroke-width="1.5"/><polygon points="854.166817817993,565.8717055935177 921.725331708159,541.7751092658814 854.6767565634813,661.0508137576494" fill="none" stroke="#e5e7eb" stroke-width="1.5"/><polygon points="921.725331708159,541.7751092658814 958.6958332320344,640.0072495115709 854.6767565634813,661.0508137576494" fill="none" stroke="#e5e7eb" stroke-width="1.5"/><polygon points="854.6767565634813,661.0508137576494 958.6958332320344,640.0072495115709 861.9036643798546,729.9349613714616" fill="#f9fafb" stroke="#e5e7eb" stroke-width="1.5"/><polygon points="958.6958332320344,640.0072495115709 932.5406836070722,747.118379338511 861.9036643798546,729.9349613714616" fill="#f9fafb" stroke="#e5e7eb" stroke-width="1.5"/><polygon points="861.9036643798546,729.9349613714616 932.5406836070722,747.118379338511 836.8640316856626,826.6449406613258" fill="none" stroke="#e5e7eb" stroke-width="1.5"/><polygon points="932.5406836070722,747.118379338511 982.6643611628411,792.6351346053747 836.8640316856626,826.6449406613258" fill="none" stroke="#e5e7eb" stroke-width="1.5"/><polygon points="836.8640316856626,826.6449406613258 982.6643611628411,792.6351346053747 827.3261418834696,922.9980979254691" fill="#f9fafb" stroke="#e5e7eb" stroke-width="1.5"/><polygon points="982.6643611628411,792.6351346053747 961.2953193847676,860.8460379064004 827.3261418834696,922.9980979254691" fill="none" stroke="#e5e7eb" stroke-width="1.5"/><polygon points="827.3261418834696,922.9980979254691 961.2953193847676,860.8460379064004 903.8229847272154,1020.0882639918688" fill="#f3f4f6" stroke="#e5e7eb" stroke-width="1.5"/><polygon points="961.2953193847676,860.8460379064004 919.8233437052257,1009.8444663673448 903.8229847272154,1020.0882639918688" fill="none" stroke="#e5e7eb" stroke-width="1.5"/><polygon points="903.8229847272154,1020.0882639918688 919.8233437052257,1009.8444663673448 855.430419947596,1080" fill="none" stroke="#e5e7eb" stroke-width="1.5"/><polygon points="919.8233437052257,1009.8444663673448 985.2508408123011,1080 855.430419947596,1080" fill="none" stroke="#e5e7eb" stroke-width="1.5"/><polygon points="946.1331936454384,0 1076.9861893151226,0 943.874823820538,129.082004118743" fill="#f9fafb" stroke="#e5e7eb" stroke-width="1.5"/><polygon points="1076.9861893151226,0 1061.4718700770754,78.35472827551924 943.874823820538,129.082004118743" fill="none" stroke="#e5e7eb" stroke-width="1.5"/><polygon points="943.874823820538,129.082004118743 1061.4718700770754,78.35472827551924 937.0416527618962,141.76172126226118" fill="#f9fafb" stroke="#e5e7eb" stroke-width="1.5"/><polygon points="1061.4718700770754,78.35472827551924 1089.6408250003287,183.11849791914696 937.0416527618962,141.76172126226118" fill="none" stroke="#e5e7eb" stroke-width="1.5"/><polygon points="937.0416527618962,141.76172126226118 1089.6408250003287,183.11849791914696 937.0823616337173,232.72323602758755" fill="#f9fafb" stroke="#e5e7eb" stroke-width="1.5"/><polygon points="1089.6408250003287,183.11849791914696 1070.194206352132,237.62177831030354 937.0823616337173,232.72323602758755" fill="none" stroke="#e5e7eb" stroke-width="1.5"/><polygon points="937.0823616337173,232.72323602758755 1070.194206352132,237.62177831030354 960.2430592553308,382.316666374957" fill="#f9fafb" stroke="#e5e7eb" stroke-width="1.5"/><polygon points="1070.194206352132,237.62177831030354 1037.5152211886214,333.5118828419227 960.2430592553308,382.316666374957" fill="none" stroke="#e5e7eb" stroke-width="1.5"/><polygon points="960.2430592553308,382.316666374957 1037.5152211886214,333.5118828419227 917.5150067104036,433.25598518936664" fill="#f3f4f6" stroke="#e5e7eb" stroke-width="1.5"/><polygon points="1037.5152211886214,333.5118828419227 1033.3510221285367,427.78570080983593 917.5150067104036,433.25598518936664" fill="none" stroke="#e5e7eb" stroke-width="1.5"/><polygon points="917.5150067104036,433.25598518936664 1033.3510221285367,427.78570080983593 921.725331708159,541.7751092658814" fill="none" stroke="#e5e7eb" stroke-width="1.5"/><polygon points="1033.3510221285367,427.78570080983593 1090.5793704907592,511.3117788305952 921.725331708159,541.7751092658814" fill="#f3f4f6" stroke="#e5e7eb" stroke-width="1.5"/><polygon points="921.725331708159,541.7751092658814 1090.5793704907592,511.3117788305952 958.6958332320344,640.0072495115709" fill="#f3f4f6" stroke="#e5e7eb" stroke-width="1.5"/><polygon points="1090.5793704907592,511.3117788305952 1072.1307184171035,670.456427109552 958.6958332320344,640.0072495115709" fill="none" stroke="#e5e7eb" stroke-width="1.5"/><polygon points="958.6958332320344,640.0072495115709 1072.1307184171035,670.456427109552 932.5406836070722,747.118379338511" fill="#f9fafb" stroke="#e5e7eb" stroke-width="1.5"/><polygon points="1072.1307184171035,670.456427109552 1077.2746941451053,724.1666960928374 932.5406836070722,747.118379338511" fill="#f9fafb" stroke="#e5e7eb" stroke-width="1.5"/><polygon points="932.5406836070722,747.118379338511 1077.2746941451053,724.1666960928374 982.6643611628411,792.6351346053747" fill="none" stroke="#e5e7eb" stroke-width="1.5"/><polygon points="1077.2746941451053,724.1666960928374 1064.6469921543144,799.0330520127175 982.6643611628411,792.6351346053747" fill="none" stroke="#e5e7eb" stroke-width="1.5"/><polygon points="982.6643611628411,792.6351346053747 1064.6469921543144,799.0330520127175 961.2953193847676,860.8460379064004" fill="#f9fafb" stroke="#e5e7eb" stroke-width="1.5"/><polygon points="1064.6469921543144,799.0330520127175 1039.2091951967943,917.533583986112 961.2953193847676,860.8460379064004" fill="none" stroke="#e5e7eb" stroke-width="1.5"/><polygon points="961.2953193847676,860.8460379064004 1039.2091951967943,917.533583986112 919.8233437052257,1009.8444663673448" fill="none" stroke="#e5e7eb" stroke-width="1.5"/><polygon points="1039.2091951967943,917.533583986112 1086.961825821591,1014.2536729292683 919.8233437052257,1009.8444663673448" fill="none" stroke="#e5e7eb" stroke-width="1.5"/><polygon points="919.8233437052257,1009.8444663673448 1086.961825821591,1014.2536729292683 985.2508408123011,1080" fill="#f3f4f6" stroke="#e5e7eb" stroke-width="1.5"/><polygon points="1086.961825821591,1014.2536729292683 1055.4812607265571,1080 985.2508408123011,1080" fill="none" stroke="#e5e7eb" stroke-width="1.5"/><polygon points="1076.9861893151226,0 1131.1214207392381,0 1061.4718700770754,78.35472827551924" fill="#f9fafb" stroke="#e5e7eb" stroke-width="1.5"/><polygon points="1131.1214207392381,0 1125.0365592067053,130.02196458605374 1061.4718700770754,78.35472827551924" fill="none" stroke="#e5e7eb" stroke-width="1.5"/><polygon points="1061.4718700770754,78.35472827551924 1125.0365592067053,130.02196458605374 1089.6408250003287,183.11849791914696" fill="none" stroke="#e5e7eb" stroke-width="1.5"/><polygon points="1125.0365592067053,130.02196458605374 1151.4201349570408,146.77645143398036 1089.6408250003287,183.11849791914696" fill="#f3f4f6" stroke="#e5e7eb" stroke-width="1.5"/><polygon points="1089.6408250003287,183.11849791914696 1151.4201349570408,146.77645143398036 1070.194206352132,237.62177831030354" fill="#f9fafb" stroke="#e5e7eb" stroke-width="1.5"/><polygon points="1151.4201349570408,146.77645143398036 1192.0958262307793,236.28370208764676 1070.194206352132,237.62177831030354" fill="#f3f4f6" stroke="#e5e7eb" stroke-width="1.5"/><polygon points="1070.194206352132,237.62177831030354 1192.0958262307793,236.28370208764676 1037.5152211886214,333.5118828419227" fill="none" stroke="#e5e7eb" stroke-width="1.5"/><polygon points="1192.0958262307793,236.28370208764676 1164.6937106805776,372.89960886876537 1037.5152211886214,333.5118828419227" fill="#f3f4f6" stroke="#e5e7eb" stroke-width="1.5"/><polygon points="1037.5152211886214,333.5118828419227 1164.6937106805776,372.89960886876537 1033.3510221285367,427.78570080983593" fill="none" stroke="#e5e7eb" stroke-width="1.5"/><polygon points="1164.6937106805776,372.89960886876537 1134.395105530418,422.2167135802105 1033.3510221285367,427.78570080983593" fill="none" stroke="#e5e7eb" stroke-width="1.5"/><polygon points="1033.3510221285367,427.78570080983593 1134.395105530418,422.2167135802105 1090.5793704907592,511.3117788305952" fill="none" stroke="#e5e7eb" stroke-width="1.5"/><polygon points="1134.395105530418,422.2167135802105 1173.190431720084,543.0150530296527 1090.5793704907592,511.3117788305952" fill="none" stroke="#e5e7eb" stroke-width="1.5"/><polygon points="1090.5793704907592,511.3117788305952 1173.190431720084,543.0150530296527 1072.1307184171035,670.456427109552" fill="none" stroke="#e5e7eb" stroke-width="1.5"/><polygon points="1173.190431720084,543.0150530296527 1109.8787805693264,625.0490743395355 1072.1307184171035,670.456427109552" fill="none" stroke="#e5e7eb" stroke-width="1.5"/><polygon points="1072.1307184171035,670.456427109552 1109.8787805693264,625.0490743395355 1077.2746941451053,724.1666960928374" fill="#f3f4f6" stroke="#e5e7eb" stroke-width="1.5"/><polygon points="1109.8787805693264,625.0490743395355 1182.8030615757377,719.5823108688467 1077.2746941451053,724.1666960928374" fill="none" stroke="#e5e7eb" stroke-width="1.5"/><polygon points="1077.2746941451053,724.1666960928374 1182.8030615757377,719.5823108688467 1064.6469921543144,799.0330520127175" fill="none" stroke="#e5e7eb" stroke-width="1.5"/><polygon points="1182.8030615757377,719.5823108688467 1163.5591075233801,787.4853015216794 1064.6469921543144,799.0330520127175" fill="none" stroke="#e5e7eb" stroke-width="1.5"/><polygon points="1064.6469921543144,799.0330520127175 1163.5591075233801,787.4853015216794 1039.2091951967943,917.533583986112" fill="#f3f4f6" stroke="#e5e7eb" stroke-width="1.5"/><polygon points="1163.5591075233801,787.4853015216794 1190.206501913451,872.1804949627002 1039.2091951967943,917.533583986112" fill="#f9fafb" stroke="#e5e7eb" stroke-width="1.5"/><polygon points="1039.2091951967943,917.533583986112 1190.206501913451,872.1804949627002 1086.961825821591,1014.2536729292683" fill="none" stroke="#e5e7eb" stroke-width="1.5"/><polygon points="1190.206501913451,872.1804949627002 1135.7391040503805,1018.7623085793138 1086.961825821591,1014.2536729292683" fill="none" stroke="#e5e7eb" stroke-width="1.5"/><polygon points="1086.961825821591,1014.2536729292683 1135.7391040503805,1018.7623085793138 1055.4812607265571,1080" fill="none" stroke="#e5e7eb" stroke-width="1.5"/><polygon points="1135.7391040503805,1018.7623085793138 1180.508308749337,1080 1055.4812607265571,1080" fill="none" stroke="#e5e7eb" stroke-width="1.5"/><polygon points="1131.1214207392381,0 1284.310928386776,0 1125.0365592067053,130.02196458605374" fill="none" stroke="#e5e7eb" stroke-width="1.5"/><polygon points="1284.310928386776,0 1209.563300632499,54.913623242934165 1125.0365592067053,130.02196458605374" fill="none" stroke="#e5e7eb" stroke-width="1.5"/><polygon points="1125.0365592067053,130.02196458605374 1209.563300632499,54.913623242934165 1151.4201349570408,146.77645143398036" fill="#f9fafb" stroke="#e5e7eb" stroke-width="1.5"/><polygon points="1209.563300632499,54.913623242934165 1206.670650024358,149.9370823603489 1151.4201349570408,146.77645143398036" fill="none" stroke="#e5e7eb" stroke-width="1.5"/><polygon points="1151.4201349570408,146.77645143398036 1206.670650024358,149.9370823603489 1192.0958262307793,236.28370208764676" fill="none" stroke="#e5e7eb" stroke-width="1.5"/><polygon points="1206.670650024358,149.9370823603489 1269.7919747344506,281.278328829618 1192.0958262307793,236.28370208764676" fill="none" stroke="#e5e7eb" stroke-width="1.5"/><polygon points="1192.0958262307793,236.28370208764676 1269.7919747344506,281.278328829618 1164.6937106805776,372.89960886876537" fill="none" stroke="#e5e7eb" stroke-width="1.5"/><polygon points="1269.7919747344506,281.278328829618 1251.3568408056435,391.28977388175593 1164.6937106805776,372.89960886876537" fill="none" stroke="#e5e7eb" stroke-width="1.5"/><polygon points="1164.6937106805776,372.89960886876537 1251.3568408056435,391.28977388175593 1134.395105530418,422.2167135802105" fill="none" stroke="#e5e7eb" stroke-width="1.5"/><polygon points="1251.3568408056435,391.28977388175593 1210.7962947669453,426.9522917301796 1134.395105530418,422.2167135802105" fill="#f9fafb" stroke="#e5e7eb" stroke-width="1.5"/><polygon points="1134.395105530418,422.2167135802105 1210.7962947669453,426.9522917301796 1173.190431720084,543.0150530296527" fill="none" stroke="#e5e7eb" stroke-width="1.5"/><polygon points="1210.7962947669453,426.9522917301796 1230.7441941073325,501.57776292292283 1173.190431720084,543.0150530296527" fill="none" stroke="#e5e7eb" stroke-width="1.5"/><polygon points="1173.190431720084,543.0150530296527 1230.7441941073325,501.57776292292283 1109.8787805693264,625.0490743395355" fill="none" stroke="#e5e7eb" stroke-width="1.5"/><polygon points="1230.7441941073325,501.57776292292283 1285.6286199272733,659.5389316888752 1109.8787805693264,625.0490743395355" fill="none" stroke="#e5e7eb" stroke-width="1.5"/><polygon points="1109.8787805693264,625.0490743395355 1285.6286199272733,659.5389316888752 1182.8030615757377,719.5823108688467" fill="#f3f4f6" stroke="#e5e7eb" stroke-width="1.5"/><polygon points="1285.6286199272733,659.5389316888752 1252.9740024151918,758.1139240605825 1182.8030615757377,719.5823108688467" fill="#f9fafb" stroke="#e5e7eb" stroke-width="1.5"/><polygon points="1182.8030615757377,719.5823108688467 1252.9740024151918,758.1139240605825 1163.5591075233801,787.4853015216794" fill="none" stroke="#e5e7eb" stroke-width="1.5"/><polygon points="1252.9740024151918,758.1139240605825 1244.565540057267,820.5580035722572 1163.5591075233801,787.4853015216794" fill="#f3f4f6" stroke="#e5e7eb" stroke-width="1.5"/><polygon points="1163.5591075233801,787.4853015216794 1244.565540057267,820.5580035722572 1190.206501913451,872.1804949627002" fill="none" stroke="#e5e7eb" stroke-width="1.5"/><polygon points="1244.565540057267,820.5580035722572 1273.7421625572738,915.4639775953659 1190.206501913451,872.1804949627002" fill="none" stroke="#e5e7eb" stroke-width="1.5"/><polygon points="1190.206501913451,872.1804949627002 1273.7421625572738,915.4639775953659 1135.7391040503805,1018.7623085793138" fill="none" stroke="#e5e7eb" stroke-width="1.5"/><polygon points="1273.7421625572738,915.4639775953659 1229.02172480076,994.6572056397473 1135.7391040503805,1018.7623085793138" fill="none" stroke="#e5e7eb" stroke-width="1.5"/><polygon points="1135.7391040503805,1018.7623085793138 1229.02172480076,994.6572056397473 1180.508308749337,1080" fill="#f3f4f6" stroke="#e5e7eb" stroke-width="1.5"/><polygon points="1229.02172480076,994.6572056397473 1210.9424717447705,1080 1180.508308749337,1080" fill="#f9fafb" stroke="#e5e7eb" stroke-width="1.5"/><polygon points="1284.310928386776,0 1344.3910099512384,0 1209.563300632499,54.913623242934165" fill="none" stroke="#e5e7eb" stroke-width="1.5"/><polygon points="1344.3910099512384,0 1372.2103645240027,63.93872984147795 1209.563300632499,54.913623242934165" fill="none" stroke="#e5e7eb" stroke-width="1.5"/><polygon points="1209.563300632499,54.913623242934165 1372.2103645240027,63.93872984147795 1206.670650024358,149.9370823603489" fill="none" stroke="#e5e7eb" stroke-width="1.5"/><polygon points="1372.2103645240027,63.93872984147795 1367.994482814734,216.38241311085528 1206.670650024358,149.9370823603489" fill="#f3f4f6" stroke="#e5e7eb" stroke-width="1.5"/><polygon points="1206.670650024358,149.9370823603489 1367.994482814734,216.38241311085528 1269.7919747344506,281.278328829618" fill="none" stroke="#e5e7eb" stroke-width="1.5"/><polygon points="1367.994482814734,216.38241311085528 1315.4943730198038,279.2712232571857 1269.7919747344506,281.278328829618" fill="none" stroke="#e5e7eb" stroke-width="1.5"/><polygon points="1269.7919747344506,281.278328829618 1315.4943730198038,279.2712232571857 1251.3568408056435,391.28977388175593" fill="#f9fafb" stroke="#e5e7eb" stroke-width="1.5"/><polygon points="1315.4943730198038,279.2712232571857 1361.0510011477252,354.12114001337136 1251.3568408056435,391.28977388175593" fill="#f9fafb" stroke="#e5e7eb" stroke-width="1.5"/><polygon points="1251.3568408056435,391.28977388175593 1361.0510011477252,354.12114001337136 1210.7962947669453,426.9522917301796" fill="#f3f4f6" stroke="#e5e7eb" stroke-width="1.5"/><polygon points="1361.0510011477252,354.12114001337136 1357.3584460092895,413.11151698249284 1210.7962947669453,426.9522917301796" fill="none" stroke="#e5e7eb" stroke-width="1.5"/><polygon points="1210.7962947669453,426.9522917301796 1357.3584460092895,413.11151698249284 1230.7441941073325,501.57776292292283" fill="none" stroke="#e5e7eb" stroke-width="1.5"/><polygon points="1357.3584460092895,413.11151698249284 1302.340828996351,571.5541938247468 1230.7441941073325,501.57776292292283" fill="none" stroke="#e5e7eb" stroke-width="1.5"/><polygon points="1230.7441941073325,501.57776292292283 1302.340828996351,571.5541938247468 1285.6286199272733,659.5389316888752" fill="none" stroke="#e5e7eb" stroke-width="1.5"/><polygon points="1302.340828996351,571.5541938247468 1346.405628635137,648.0572284576846 1285.6286199272733,659.5389316888752" fill="#f9fafb" stroke="#e5e7eb" stroke-width="1.5"/><polygon points="1285.6286199272733,659.5389316888752 1346.405628635137,648.0572284576846 1252.9740024151918,758.1139240605825" fill="none" stroke="#e5e7eb" stroke-width="1.5"/><polygon points="1346.405628635137,648.0572284576846 1347.3654389892276,697.5861786705511 1252.9740024151918,758.1139240605825" fill="none" stroke="#e5e7eb" stroke-width="1.5"/><polygon points="1252.9740024151918,758.1139240605825 1347.3654389892276,697.5861786705511 1244.565540057267,820.5580035722572" fill="none" stroke="#e5e7eb" stroke-width="1.5"/><polygon points="1347.3654389892276,697.5861786705511 1318.603089129384,817.3939741819964 1244.565540057267,820.5580035722572" fill="#f9fafb" stroke="#e5e7eb" stroke-width="1.5"/><polygon points="1244.565540057267,820.5580035722572 1318.603089129384,817.3939741819964 1273.7421625572738,915.4639775953659" fill="none" stroke="#e5e7eb" stroke-width="1.5"/><polygon points="1318.603089129384,817.3939741819964 1370.2375175558352,913.1425543271531 1273.7421625572738,915.4639775953659" fill="none" stroke="#e5e7eb" stroke-width="1.5"/><polygon points="1273.7421625572738,915.4639775953659 1370.2375175558352,913.1425543271531 1229.02172480076,994.6572056397473" fill="none" stroke="#e5e7eb" stroke-width="1.5"/><polygon points="1370.2375175558352,913.1425543271531 1311.2958347288002,967.6838343778925 1229.02172480076,994.6572056397473" fill="none" stroke="#e5e7eb" stroke-width="1.5"/><polygon points="1229.02172480076,994.6572056397473 1311.2958347288002,967.6838343778925 1210.9424717447705,1080" fill="none" stroke="#e5e7eb" stroke-width="1.5"/><polygon points="1311.2958347288002,967.6838343778925 1337.0933346621584,1080 1210.9424717447705,1080" fill="none" stroke="#e5e7eb" stroke-width="1.5"/><polygon points="1344.3910099512384,0 1430.3607751735528,0 1372.2103645240027,63.93872984147795" fill="none" stroke="#e5e7eb" stroke-width="1.5"/><polygon points="1430.3607751735528,0 1425.8867604711565,65.76921806158535 1372.2103645240027,63.93872984147795" fill="none" stroke="#e5e7eb" stroke-width="1.5"/><polygon points="1372.2103645240027,63.93872984147795 1425.8867604711565,65.76921806158535 1367.994482814734,216.38241311085528" fill="none" stroke="#e5e7eb" stroke-width="1.5"/><polygon points="1425.8867604711565,65.76921806158535 1454.9497708149615,152.68609830850016 1367.994482814734,216.38241311085528" fill="#f3f4f6" stroke="#e5e7eb" stroke-width="1.5"/><polygon points="1367.994482814734,216.38241311085528 1454.9497708149615,152.68609830850016 1315.4943730198038,279.2712232571857" fill="#f3f4f6" stroke="#e5e7eb" stroke-width="1.5"/><polygon points="1454.9497708149615,152.68609830850016 1411.8746016906537,265.25257817817464 1315.4943730198038,279.2712232571857" fill="none" stroke="#e5e7eb" stroke-width="1.5"/><polygon points="1315.4943730198038,279.2712232571857 1411.8746016906537,265.25257817817464 1361.0510011477252,354.12114001337136" fill="none" stroke="#e5e7eb" stroke-width="1.5"/><polygon points="1411.8746016906537,265.25257817817464 1413.7012068294596,381.46988962714664 1361.0510011477252,354.12114001337136" fill="#f9fafb" stroke="#e5e7eb" stroke-width="1.5"/><polygon points="1361.0510011477252,354.12114001337136 1413.7012068294596,381.46988962714664 1357.3584460092895,413.11151698249284" fill="#f9fafb" stroke="#e5e7eb" stroke-width="1.5"/><polygon points="1413.7012068294596,381.46988962714664 1428.6862897990627,486.9498964965747 1357.3584460092895,413.11151698249284" fill="#f9fafb" stroke="#e5e7eb" stroke-width="1.5"/><polygon points="1357.3584460092895,413.11151698249284 1428.6862897990627,486.9498964965747 1302.340828996351,571.5541938247468" fill="#f3f4f6" stroke="#e5e7eb" stroke-width="1.5"/><polygon points="1428.6862897990627,486.9498964965747 1448.035536758745,508.71052812250605 1302.340828996351,571.5541938247468" fill="none" stroke="#e5e7eb" stroke-width="1.5"/><polygon points="1302.340828996351,571.5541938247468 1448.035536758745,508.71052812250605 1346.405628635137,648.0572284576846" fill="none" stroke="#e5e7eb" stroke-width="1.5"/><polygon points="1448.035536758745,508.71052812250605 1398.4424549036305,626.222547262126 1346.405628635137,648.0572284576846" fill="none" stroke="#e5e7eb" stroke-width="1.5"/><polygon points="1346.405628635137,648.0572284576846 1398.4424549036305,626.222547262126 1347.3654389892276,697.5861786705511" fill="none" stroke="#e5e7eb" stroke-width="1.5"/><polygon points="1398.4424549036305,626.222547262126 1409.7606503085242,731.7793057268788 1347.3654389892276,697.5861786705511" fill="none" stroke="#e5e7eb" stroke-width="1.5"/><polygon points="1347.3654389892276,697.5861786705511 1409.7606503085242,731.7793057268788 1318.603089129384,817.3939741819964" fill="#f3f4f6" stroke="#e5e7eb" stroke-width="1.5"/><polygon points="1409.7606503085242,731.7793057268788 1418.36983982201,783.9495797220433 1318.603089129384,817.3939741819964" fill="none" stroke="#e5e7eb" stroke-width="1.5"/><polygon points="1318.603089129384,817.3939741819964 1418.36983982201,783.9495797220433 1370.2375175558352,913.1425543271531" fill="none" stroke="#e5e7eb" stroke-width="1.5"/><polygon points="1418.36983982201,783.9495797220433 1476.160867044173,929.1183656926759 1370.2375175558352,913.1425543271531" fill="none" stroke="#e5e7eb" stroke-width="1.5"/><polygon points="1370.2375175558352,913.1425543271531 1476.160867044173,929.1183656926759 1311.2958347288002,967.6838343778925" fill="#f3f4f6" stroke="#e5e7eb" stroke-width="1.5"/><polygon points="1476.160867044173,929.1183656926759 1466.2982309149527,958.5814817227197 1311.2958347288002,967.6838343778925" fill="none" stroke="#e5e7eb" stroke-width="1.5"/><polygon points="1311.2958347288002,967.6838343778925 1466.2982309149527,958.5814817227197 1337.0933346621584,1080" fill="none" stroke="#e5e7eb" stroke-width="1.5"/><polygon points="1466.2982309149527,958.5814817227197 1478.3543817440816,1080 1337.0933346621584,1080" fill="none" stroke="#e5e7eb" stroke-width="1.5"/><polygon points="1430.3607751735528,0 1566.2111634240778,0 1425.8867604711565,65.76921806158535" fill="none" stroke="#e5e7eb" stroke-width="1.5"/><polygon points="1566.2111634240778,0 1534.6974678938818,128.87739020301493 1425.8867604711565,65.76921806158535" fill="none" stroke="#e5e7eb" stroke-width="1.5"/><polygon points="1425.8867604711565,65.76921806158535 1534.6974678938818,128.87739020301493 1454.9497708149615,152.68609830850016" fill="none" stroke="#e5e7eb" stroke-width="1.5"/><polygon points="1534.6974678938818,128.87739020301493 1568.9761993009886,152.4060997169663 1454.9497708149615,152.68609830850016" fill="none" stroke="#e5e7eb" stroke-width="1.5"/><polygon points="1454.9497708149615,152.68609830850016 1568.9761993009886,152.4060997169663 1411.8746016906537,265.25257817817464" fill="#f9fafb" stroke="#e5e7eb" stroke-width="1.5"/><polygon points="1568.9761993009886,152.4060997169663 1563.1241224862995,300.8926662180089 1411.8746016906537,265.25257817817464" fill="none" stroke="#e5e7eb" stroke-width="1.5"/><polygon points="1411.8746016906537,265.25257817817464 1563.1241224862995,300.8926662180089 1413.7012068294596,381.46988962714664" fill="none" stroke="#e5e7eb" stroke-width="1.5"/><polygon points="1563.1241224862995,300.8926662180089 1572.4697946201652,378.4957617725285 1413.7012068294596,381.46988962714664" fill="none" stroke="#e5e7eb" stroke-width="1.5"/><polygon points="1413.7012068294596,381.46988962714664 1572.4697946201652,378.4957617725285 1428.6862897990627,486.9498964965747" fill="none" stroke="#e5e7eb" stroke-width="1.5"/><polygon points="1572.4697946201652,378.4957617725285 1522.9152220188153,421.6891314481955 1428.6862897990627,486.9498964965747" fill="#f3f4f6" stroke="#e5e7eb" stroke-width="1.5"/><polygon points="1428.6862897990627,486.9498964965747 1522.9152220188153,421.6891314481955 1448.035536758745,508.71052812250605" fill="none" stroke="#e5e7eb" stroke-width="1.5"/><polygon points="1522.9152220188153,421.6891314481955 1554.0427552747763,525.4479848581677 1448.035536758745,508.71052812250605" fill="none" stroke="#e5e7eb" stroke-width="1.5"/><polygon points="1448.035536758745,508.71052812250605 1554.0427552747763,525.4479848581677 1398.4424549036305,626.222547262126" fill="none" stroke="#e5e7eb" stroke-width="1.5"/><polygon points="1554.0427552747763,525.4479848581677 1518.2520470249515,628.0526877161142 1398.4424549036305,626.222547262126" fill="#f9fafb" stroke="#e5e7eb" stroke-width="1.5"/><polygon points="1398.4424549036305,626.222547262126 1518.2520470249515,628.0526877161142 1409.7606503085242,731.7793057268788" fill="none" stroke="#e5e7eb" stroke-width="1.5"/><polygon points="1518.2520470249515,628.0526877161142 1558.2522886917982,697.4623069526469 1409.7606503085242,731.7793057268788" fill="none" stroke="#e5e7eb" stroke-width="1.5"/><polygon points="1409.7606503085242,731.7793057268788 1558.2522886917982,697.4623069526469 1418.36983982201,783.9495797220433" fill="#f3f4f6" stroke="#e5e7eb" stroke-width="1.5"/><polygon points="1558.2522886917982,697.4623069526469 1512.7891065476308,803.4253238621842 1418.36983982201,783.9495797220433" fill="none" stroke="#e5e7eb" stroke-width="1.5"/><polygon points="1418.36983982201,783.9495797220433 1512.7891065476308,803.4253238621842 1476.160867044173,929.1183656926759" fill="none" stroke="#e5e7eb" stroke-width="1.5"/><polygon points="1512.7891065476308,803.4253238621842 1521.1375169437533,874.137835757211 1476.160867044173,929.1183656926759" fill="none" stroke="#e5e7eb" stroke-width="1.5"/><polygon points="1476.160867044173,929.1183656926759 1521.1375169437533,874.137835757211 1466.2982309149527,958.5814817227197" fill="none" stroke="#e5e7eb" stroke-width="1.5"/><polygon points="1521.1375169437533,874.137835757211 1574.2354659542048,979.0480112154121 1466.2982309149527,958.5814817227197" fill="none" stroke="#e5e7eb" stroke-width="1.5"/><polygon points="1466.2982309149527,958.5814817227197 1574.2354659542048,979.0480112154121 1478.3543817440816,1080" fill="none" stroke="#e5e7eb" stroke-width="1.5"/><polygon points="1574.2354659542048,979.0480112154121 1495.4579533073143,1080 1478.3543817440816,1080" fill="none" stroke="#e5e7eb" stroke-width="1.5"/><polygon points="1566.2111634240778,0 1618.202969248429,0 1534.6974678938818,128.87739020301493" fill="#f9fafb" stroke="#e5e7eb" stroke-width="1.5"/><polygon points="1618.202969248429,0 1647.571646588804,65.8066011961302 1534.6974678938818,128.87739020301493" fill="none" stroke="#e5e7eb" stroke-width="1.5"/><polygon points="1534.6974678938818,128.87739020301493 1647.571646588804,65.8066011961302 1568.9761993009886,152.4060997169663" fill="none" stroke="#e5e7eb" stroke-width="1.5"/><polygon points="1647.571646588804,65.8066011961302 1613.0413932961978,215.45188270404446 1568.9761993009886,152.4060997169663" fill="none" stroke="#e5e7eb" stroke-width="1.5"/><polygon points="1568.9761993009886,152.4060997169663 1613.0413932961978,215.45188270404446 1563.1241224862995,300.8926662180089" fill="none" stroke="#e5e7eb" stroke-width="1.5"/><polygon points="1613.0413932961978,215.45188270404446 1674.2379531953643,291.43040811365455 1563.1241224862995,300.8926662180089" fill="#f3f4f6" stroke="#e5e7eb" stroke-width="1.5"/><polygon points="1563.1241224862995,300.8926662180089 1674.2379531953643,291.43040811365455 1572.4697946201652,378.4957617725285" fill="none" stroke="#e5e7eb" stroke-width="1.5"/><polygon points="1674.2379531953643,291.43040811365455 1671.3630879706589,398.06799204215713 1572.4697946201652,378.4957617725285" fill="none" stroke="#e5e7eb" stroke-width="1.5"/><polygon points="1572.4697946201652,378.4957617725285 1671.3630879706589,398.06799204215713 1522.9152220188153,421.6891314481955" fill="none" stroke="#e5e7eb" stroke-width="1.5"/><polygon points="1671.3630879706589,398.06799204215713 1609.8765927610145,468.3699424611099 1522.9152220188153,421.6891314481955" fill="#f9fafb" stroke="#e5e7eb" stroke-width="1.5"/><polygon points="1522.9152220188153,421.6891314481955 1609.8765927610145,468.3699424611099 1554.0427552747763,525.4479848581677" fill="#f9fafb" stroke="#e5e7eb" stroke-width="1.5"/><polygon points="1609.8765927610145,468.3699424611099 1635.6030870677287,563.6939014414236 1554.0427552747763,525.4479848581677" fill="none" stroke="#e5e7eb" stroke-width="1.5"/><polygon points="1554.0427552747763,525.4479848581677 1635.6030870677287,563.6939014414236 1518.2520470249515,628.0526877161142" fill="none" stroke="#e5e7eb" stroke-width="1.5"/><polygon points="1635.6030870677287,563.6939014414236 1621.1073350415377,607.1374047448334 1518.2520470249515,628.0526877161142" fill="none" stroke="#e5e7eb" stroke-width="1.5"/><polygon points="1518.2520470249515,628.0526877161142 1621.1073350415377,607.1374047448334 1558.2522886917982,697.4623069526469" fill="none" stroke="#e5e7eb" stroke-width="1.5"/><polygon points="1621.1073350415377,607.1374047448334 1620.5397616197633,736.4084165231856 1558.2522886917982,697.4623069526469" fill="none" stroke="#e5e7eb" stroke-width="1.5"/><polygon points="1558.2522886917982,697.4623069526469 1620.5397616197633,736.4084165231856 1512.7891065476308,803.4253238621842" fill="none" stroke="#e5e7eb" stroke-width="1.5"/><polygon points="1620.5397616197633,736.4084165231856 1627.8129690910228,850.4554401781369 1512.7891065476308,803.4253238621842" fill="none" stroke="#e5e7eb" stroke-width="1.5"/><polygon points="1512.7891065476308,803.4253238621842 1627.8129690910228,850.4554401781369 1521.1375169437533,874.137835757211" fill="#f3f4f6" stroke="#e5e7eb" stroke-width="1.5"/><polygon points="1627.8129690910228,850.4554401781369 1654.1013298597186,933.5943025648642 1521.1375169437533,874.137835757211" fill="#f3f4f6" stroke="#e5e7eb" stroke-width="1.5"/><polygon points="1521.1375169437533,874.137835757211 1654.1013298597186,933.5943025648642 1574.2354659542048,979.0480112154121" fill="#f9fafb" stroke="#e5e7eb" stroke-width="1.5"/><polygon points="1654.1013298597186,933.5943025648642 1645.264637290123,950.432275554964 1574.2354659542048,979.0480112154121" fill="none" stroke="#e5e7eb" stroke-width="1.5"/><polygon points="1574.2354659542048,979.0480112154121 1645.264637290123,950.432275554964 1495.4579533073143,1080" fill="none" stroke="#e5e7eb" stroke-width="1.5"/><polygon points="1645.264637290123,950.432275554964 1601.3063020984562,1080 1495.4579533073143,1080" fill="#f9fafb" stroke="#e5e7eb" stroke-width="1.5"/><polygon points="1618.202969248429,0 1749.389247224551,0 1647.571646588804,65.8066011961302" fill="none" stroke="#e5e7eb" stroke-width="1.5"/><polygon points="1749.389247224551,0 1744.6908549725322,111.75440890193906 1647.571646588804,65.8066011961302" fill="none" stroke="#e5e7eb" stroke-width="1.5"/><polygon points="1647.571646588804,65.8066011961302 1744.6908549725322,111.75440890193906 1613.0413932961978,215.45188270404446" fill="none" stroke="#e5e7eb" stroke-width="1.5"/><polygon points="1744.6908549725322,111.75440890193906 1729.2833297709813,210.7865333084121 1613.0413932961978,215.45188270404446" fill="none" stroke="#e5e7eb" stroke-width="1.5"/><polygon points="1613.0413932961978,215.45188270404446 1729.2833297709813,210.7865333084121 1674.2379531953643,291.43040811365455" fill="#f3f4f6" stroke="#e5e7eb" stroke-width="1.5"/><polygon points="1729.2833297709813,210.7865333084121 1743.7514261371464,248.21526800893278 1674.2379531953643,291.43040811365455" fill="none" stroke="#e5e7eb" stroke-width="1.5"/><polygon points="1674.2379531953643,291.43040811365455 1743.7514261371464,248.21526800893278 1671.3630879706589,398.06799204215713" fill="none" stroke="#e5e7eb" stroke-width="1.5"/><polygon points="1743.7514261371464,248.21526800893278 1765.0889559553334,381.20995699101246 1671.3630879706589,398.06799204215713" fill="#f3f4f6" stroke="#e5e7eb" stroke-width="1.5"/><polygon points="1671.3630879706589,398.06799204215713 1765.0889559553334,381.20995699101246 1609.8765927610145,468.3699424611099" fill="none" stroke="#e5e7eb" stroke-width="1.5"/><polygon points="1765.0889559553334,381.20995699101246 1707.104749867965,416.6871242507328 1609.8765927610145,468.3699424611099" fill="#f3f4f6" stroke="#e5e7eb" stroke-width="1.5"/><polygon points="1609.8765927610145,468.3699424611099 1707.104749867965,416.6871242507328 1635.6030870677287,563.6939014414236" fill="none" stroke="#e5e7eb" stroke-width="1.5"/><polygon points="1707.104749867965,416.6871242507328 1765.20219332929,505.8772537568062 1635.6030870677287,563.6939014414236" fill="#f3f4f6" stroke="#e5e7eb" stroke-width="1.5"/><polygon points="1635.6030870677287,563.6939014414236 1765.20219332929,505.8772537568062 1621.1073350415377,607.1374047448334" fill="none" stroke="#e5e7eb" stroke-width="1.5"/><polygon points="1765.20219332929,505.8772537568062 1747.4539196559103,642.5561374687409 1621.1073350415377,607.1374047448334" fill="#f3f4f6" stroke="#e5e7eb" stroke-width="1.5"/><polygon points="1621.1073350415377,607.1374047448334 1747.4539196559103,642.5561374687409 1620.5397616197633,736.4084165231856" fill="#f9fafb" stroke="#e5e7eb" stroke-width="1.5"/><polygon points="1747.4539196559103,642.5561374687409 1719.9544591749152,753.7777590507067 1620.5397616197633,736.4084165231856" fill="none" stroke="#e5e7eb" stroke-width="1.5"/><polygon points="1620.5397616197633,736.4084165231856 1719.9544591749152,753.7777590507067 1627.8129690910228,850.4554401781369" fill="none" stroke="#e5e7eb" stroke-width="1.5"/><polygon points="1719.9544591749152,753.7777590507067 1718.4086974265915,840.9612650971524 1627.8129690910228,850.4554401781369" fill="#f9fafb" stroke="#e5e7eb" stroke-width="1.5"/><polygon points="1627.8129690910228,850.4554401781369 1718.4086974265915,840.9612650971524 1654.1013298597186,933.5943025648642" fill="#f9fafb" stroke="#e5e7eb" stroke-width="1.5"/><polygon points="1718.4086974265915,840.9612650971524 1735.9975911403285,871.4470813836894 1654.1013298597186,933.5943025648642" fill="none" stroke="#e5e7eb" stroke-width="1.5"/><polygon points="1654.1013298597186,933.5943025648642 1735.9975911403285,871.4470813836894 1645.264637290123,950.432275554964" fill="none" stroke="#e5e7eb" stroke-width="1.5"/><polygon points="1735.9975911403285,871.4470813836894 1764.381490121562,1014.7200107643661 1645.264637290123,950.432275554964" fill="none" stroke="#e5e7eb" stroke-width="1.5"/><polygon points="1645.264637290123,950.432275554964 1764.381490121562,1014.7200107643661 1601.3063020984562,1080" fill="none" stroke="#e5e7eb" stroke-width="1.5"/><polygon points="1764.381490121562,1014.7200107643661 1756.0270015869833,1080 1601.3063020984562,1080" fill="none" stroke="#e5e7eb" stroke-width="1.5"/><polygon points="1749.389247224551,0 1856.333624949098,0 1744.6908549725322,111.75440890193906" fill="#f3f4f6" stroke="#e5e7eb" stroke-width="1.5"/><polygon points="1856.333624949098,0 1846.5025043453331,51.464094462402635 1744.6908549725322,111.75440890193906" fill="#f9fafb" stroke="#e5e7eb" stroke-width="1.5"/><polygon points="1744.6908549725322,111.75440890193906 1846.5025043453331,51.464094462402635 1729.2833297709813,210.7865333084121" fill="none" stroke="#e5e7eb" stroke-width="1.5"/><polygon points="1846.5025043453331,51.464094462402635 1818.583558303451,186.37186638531878 1729.2833297709813,210.7865333084121" fill="none" stroke="#e5e7eb" stroke-width="1.5"/><polygon points="1729.2833297709813,210.7865333084121 1818.583558303451,186.37186638531878 1743.7514261371464,248.21526800893278" fill="none" stroke="#e5e7eb" stroke-width="1.5"/><polygon points="1818.583558303451,186.37186638531878 1835.817818210154,272.29280289621875 1743.7514261371464,248.21526800893278" fill="#f9fafb" stroke="#e5e7eb" stroke-width="1.5"/><polygon points="1743.7514261371464,248.21526800893278 1835.817818210154,272.29280289621875 1765.0889559553334,381.20995699101246" fill="#f9fafb" stroke="#e5e7eb" stroke-width="1.5"/><polygon points="1835.817818210154,272.29280289621875 1823.6297197658137,392.84897202306 1765.0889559553334,381.20995699101246" fill="none" stroke="#e5e7eb" stroke-width="1.5"/><polygon points="1765.0889559553334,381.20995699101246 1823.6297197658137,392.84897202306 1707.104749867965,416.6871242507328" fill="none" stroke="#e5e7eb" stroke-width="1.5"/><polygon points="1823.6297197658137,392.84897202306 1805.6942073967773,417.89826180255636 1707.104749867965,416.6871242507328" fill="none" stroke="#e5e7eb" stroke-width="1.5"/><polygon points="1707.104749867965,416.6871242507328 1805.6942073967773,417.89826180255636 1765.20219332929,505.8772537568062" fill="none" stroke="#e5e7eb" stroke-width="1.5"/><polygon points="1805.6942073967773,417.89826180255636 1795.1168933015756,569.1342962950797 1765.20219332929,505.8772537568062" fill="none" stroke="#e5e7eb" stroke-width="1.5"/><polygon points="1765.20219332929,505.8772537568062 1795.1168933015756,569.1342962950797 1747.4539196559103,642.5561374687409" fill="none" stroke="#e5e7eb" stroke-width="1.5"/><polygon points="1795.1168933015756,569.1342962950797 1845.6709463981074,618.1662080736764 1747.4539196559103,642.5561374687409" fill="none" stroke="#e5e7eb" stroke-width="1.5"/><polygon points="1747.4539196559103,642.5561374687409 1845.6709463981074,618.1662080736764 1719.9544591749152,753.7777590507067" fill="none" stroke="#e5e7eb" stroke-width="1.5"/><polygon points="1845.6709463981074,618.1662080736764 1850.9259178195887,704.3234053070239 1719.9544591749152,753.7777590507067" fill="#f3f4f6" stroke="#e5e7eb" stroke-width="1.5"/><polygon points="1719.9544591749152,753.7777590507067 1850.9259178195887,704.3234053070239 1718.4086974265915,840.9612650971524" fill="#f3f4f6" stroke="#e5e7eb" stroke-width="1.5"/><polygon points="1850.9259178195887,704.3234053070239 1824.546644088129,774.1647125890745 1718.4086974265915,840.9612650971524" fill="#f9fafb" stroke="#e5e7eb" stroke-width="1.5"/><polygon points="1718.4086974265915,840.9612650971524 1824.546644088129,774.1647125890745 1735.9975911403285,871.4470813836894" fill="none" stroke="#e5e7eb" stroke-width="1.5"/><polygon points="1824.546644088129,774.1647125890745 1834.3479373358768,935.0272716366205 1735.9975911403285,871.4470813836894" fill="#f3f4f6" stroke="#e5e7eb" stroke-width="1.5"/><polygon points="1735.9975911403285,871.4470813836894 1834.3479373358768,935.0272716366205 1764.381490121562,1014.7200107643661" fill="none" stroke="#e5e7eb" stroke-width="1.5"/><polygon points="1834.3479373358768,935.0272716366205 1805.086107977474,985.5452248519084 1764.381490121562,1014.7200107643661" fill="none" stroke="#e5e7eb" stroke-width="1.5"/><polygon points="1764.381490121562,1014.7200107643661 1805.086107977474,985.5452248519084 1756.0270015869833,1080" fill="none" stroke="#e5e7eb" stroke-width="1.5"/><polygon points="1805.086107977474,985.5452248519084 1808.7398191967163,1080 1756.0270015869833,1080" fill="none" stroke="#e5e7eb" stroke-width="1.5"/><polygon points="1856.333624949098,0 1920,0 1846.5025043453331,51.464094462402635" fill="none" stroke="#e5e7eb" stroke-width="1.5"/><polygon points="1920,0 1920,71.21929838677549 1846.5025043453331,51.464094462402635" fill="#f9fafb" stroke="#e5e7eb" stroke-width="1.5"/><polygon points="1846.5025043453331,51.464094462402635 1920,71.21929838677549 1818.583558303451,186.37186638531878" fill="#f3f4f6" stroke="#e5e7eb" stroke-width="1.5"/><polygon points="1920,71.21929838677549 1920,205.52931173089613 1818.583558303451,186.37186638531878" fill="none" stroke="#e5e7eb" stroke-width="1.5"/><polygon points="1818.583558303451,186.37186638531878 1920,205.52931173089613 1835.817818210154,272.29280289621875" fill="none" stroke="#e5e7eb" stroke-width="1.5"/><polygon points="1920,205.52931173089613 1920,240.91755801854686 1835.817818210154,272.29280289621875" fill="#f9fafb" stroke="#e5e7eb" stroke-width="1.5"/><polygon points="1835.817818210154,272.29280289621875 1920,240.91755801854686 1823.6297197658137,392.84897202306" fill="none" stroke="#e5e7eb" stroke-width="1.5"/><polygon points="1920,240.91755801854686 1920,335.12761130739744 1823.6297197658137,392.84897202306" fill="none" stroke="#e5e7eb" stroke-width="1.5"/><polygon points="1823.6297197658137,392.84897202306 1920,335.12761130739744 1805.6942073967773,417.89826180255636" fill="none" stroke="#e5e7eb" stroke-width="1.5"/><polygon points="1920,335.12761130739744 1920,484.9724477385525 1805.6942073967773,417.89826180255636" fill="#f9fafb" stroke="#e5e7eb" stroke-width="1.5"/><polygon points="1805.6942073967773,417.89826180255636 1920,484.9724477385525 1795.1168933015756,569.1342962950797" fill="none" stroke="#e5e7eb" stroke-width="1.5"/><polygon points="1920,484.9724477385525 1920,575.2984518723947 1795.1168933015756,569.1342962950797" fill="none" stroke="#e5e7eb" stroke-width="1.5"/><polygon points="1795.1168933015756,569.1342962950797 1920,575.2984518723947 1845.6709463981074,618.1662080736764" fill="#f3f4f6" stroke="#e5e7eb" stroke-width="1.5"/><polygon points="1920,575.2984518723947 1920,623.9664563007941 1845.6709463981074,618.1662080736764" fill="none" stroke="#e5e7eb" stroke-width="1.5"/><polygon points="1845.6709463981074,618.1662080736764 1920,623.9664563007941 1850.9259178195887,704.3234053070239" fill="#f3f4f6" stroke="#e5e7eb" stroke-width="1.5"/><polygon points="1920,623.9664563007941 1920,711.2955488672922 1850.9259178195887,704.3234053070239" fill="none" stroke="#e5e7eb" stroke-width="1.5"/><polygon points="1850.9259178195887,704.3234053070239 1920,711.2955488672922 1824.546644088129,774.1647125890745" fill="none" stroke="#e5e7eb" stroke-width="1.5"/><polygon points="1920,711.2955488672922 1920,811.7788588220782 1824.546644088129,774.1647125890745" fill="none" stroke="#e5e7eb" stroke-width="1.5"/><polygon points="1824.546644088129,774.1647125890745 1920,811.7788588220782 1834.3479373358768,935.0272716366205" fill="none" stroke="#e5e7eb" stroke-width="1.5"/><polygon points="1920,811.7788588220782 1920,931.8844232527689 1834.3479373358768,935.0272716366205" fill="#f9fafb" stroke="#e5e7eb" stroke-width="1.5"/><polygon points="1834.3479373358768,935.0272716366205 1920,931.8844232527689 1805.086107977474,985.5452248519084" fill="none" stroke="#e5e7eb" stroke-width="1.5"/><polygon points="1920,931.8844232527689 1920,969.7746948935421 1805.086107977474,985.5452248519084" fill="none" stroke="#e5e7eb" stroke-width="1.5"/><polygon points="1805.086107977474,985.5452248519084 1920,969.7746948935421 1808.7398191967163,1080" fill="#f9fafb" stroke="#e5e7eb" stroke-width="1.5"/><polygon points="1920,969.7746948935421 1920,1080 1808.7398191967163,1080" fill="none" stroke="#e5e7eb" stroke-width="1.5"/></svg>